<?xml version="1.0" encoding="UTF-8" standalone="no"?>
<!DOCTYPE svg PUBLIC "-//W3C//DTD SVG 1.1//EN"
 "http://www.w3.org/Graphics/SVG/1.1/DTD/svg11.dtd">
<!-- Generated by graphviz version 2.40.1 (20161225.0304)
 -->
<!-- Title: atp.training Pages: 1 -->
<svg width="353pt" height="1095pt"
 viewBox="0.00 0.00 353.00 1095.00" xmlns="http://www.w3.org/2000/svg" xmlns:xlink="http://www.w3.org/1999/xlink">
<g id="graph0" class="graph" transform="scale(1 1) rotate(0) translate(4 1091)">
<title>atp.training</title>
<polygon fill="#ffffff" stroke="transparent" points="-4,4 -4,-1091 349,-1091 349,4 -4,4"/>
<!-- atp.training -->
<g id="node1" class="node">
<title>atp.training</title>
<polygon fill="#efefef" stroke="transparent" points="46.5,-1005.5 46.5,-1040.5 299.5,-1040.5 299.5,-1005.5 46.5,-1005.5"/>
<polygon fill="none" stroke="#000000" points="46.5,-1005.5 46.5,-1040.5 299.5,-1040.5 299.5,-1005.5 46.5,-1005.5"/>
<text text-anchor="start" x="64.7038" y="-1018.3" font-family="Arial Bold" font-size="18.00" fill="#000000">atp.training</text>
<text text-anchor="start" x="153.7282" y="-1018.3" font-family="Arial" font-size="14.00" fill="#000000">    </text>
<text text-anchor="start" x="187.933" y="-1018.3" font-family="Arial" font-size="14.00" fill="#666666">[BASE TABLE]</text>
<polygon fill="none" stroke="#000000" points="46.5,-975.5 46.5,-1005.5 299.5,-1005.5 299.5,-975.5 46.5,-975.5"/>
<text text-anchor="start" x="53.5" y="-986.9" font-family="Arial" font-size="14.00" fill="#000000">imdb_id </text>
<text text-anchor="start" x="106.3948" y="-986.9" font-family="Arial" font-size="14.00" fill="#666666">[varchar(10)]</text>
<polygon fill="none" stroke="#000000" points="46.5,-945.5 46.5,-975.5 299.5,-975.5 299.5,-945.5 46.5,-945.5"/>
<text text-anchor="start" x="53.5" y="-956.9" font-family="Arial" font-size="14.00" fill="#000000">tmdb_id </text>
<text text-anchor="start" x="107.1788" y="-956.9" font-family="Arial" font-size="14.00" fill="#666666">[integer]</text>
<polygon fill="none" stroke="#000000" points="46.5,-915.5 46.5,-945.5 299.5,-945.5 299.5,-915.5 46.5,-915.5"/>
<text text-anchor="start" x="53.5" y="-926.9" font-family="Arial" font-size="14.00" fill="#000000">label </text>
<text text-anchor="start" x="86.9516" y="-926.9" font-family="Arial" font-size="14.00" fill="#666666">[atp.label_type]</text>
<polygon fill="none" stroke="#000000" points="46.5,-885.5 46.5,-915.5 299.5,-915.5 299.5,-885.5 46.5,-885.5"/>
<text text-anchor="start" x="53.5" y="-896.9" font-family="Arial" font-size="14.00" fill="#000000">human_labeled </text>
<text text-anchor="start" x="153.0904" y="-896.9" font-family="Arial" font-size="14.00" fill="#666666">[boolean]</text>
<polygon fill="none" stroke="#000000" points="46.5,-855.5 46.5,-885.5 299.5,-885.5 299.5,-855.5 46.5,-855.5"/>
<text text-anchor="start" x="53.5" y="-866.9" font-family="Arial" font-size="14.00" fill="#000000">anomalous </text>
<text text-anchor="start" x="125.8534" y="-866.9" font-family="Arial" font-size="14.00" fill="#666666">[boolean]</text>
<polygon fill="none" stroke="#000000" points="46.5,-825.5 46.5,-855.5 299.5,-855.5 299.5,-825.5 46.5,-825.5"/>
<text text-anchor="start" x="53.5" y="-836.9" font-family="Arial" font-size="14.00" fill="#000000">media_type </text>
<text text-anchor="start" x="129.744" y="-836.9" font-family="Arial" font-size="14.00" fill="#666666">[atp.media_type]</text>
<polygon fill="none" stroke="#000000" points="46.5,-795.5 46.5,-825.5 299.5,-825.5 299.5,-795.5 46.5,-795.5"/>
<text text-anchor="start" x="53.5" y="-806.9" font-family="Arial" font-size="14.00" fill="#000000">media_title </text>
<text text-anchor="start" x="125.0652" y="-806.9" font-family="Arial" font-size="14.00" fill="#666666">[varchar(255)]</text>
<polygon fill="none" stroke="#000000" points="46.5,-765.5 46.5,-795.5 299.5,-795.5 299.5,-765.5 46.5,-765.5"/>
<text text-anchor="start" x="53.5" y="-776.9" font-family="Arial" font-size="14.00" fill="#000000">season </text>
<text text-anchor="start" x="102.521" y="-776.9" font-family="Arial" font-size="14.00" fill="#666666">[smallint]</text>
<polygon fill="none" stroke="#000000" points="46.5,-735.5 46.5,-765.5 299.5,-765.5 299.5,-735.5 46.5,-735.5"/>
<text text-anchor="start" x="53.5" y="-746.9" font-family="Arial" font-size="14.00" fill="#000000">episode </text>
<text text-anchor="start" x="106.4102" y="-746.9" font-family="Arial" font-size="14.00" fill="#666666">[smallint]</text>
<polygon fill="none" stroke="#000000" points="46.5,-705.5 46.5,-735.5 299.5,-735.5 299.5,-705.5 46.5,-705.5"/>
<text text-anchor="start" x="53.5" y="-716.9" font-family="Arial" font-size="14.00" fill="#000000">release_year </text>
<text text-anchor="start" x="138.2966" y="-716.9" font-family="Arial" font-size="14.00" fill="#666666">[smallint]</text>
<polygon fill="none" stroke="#000000" points="46.5,-675.5 46.5,-705.5 299.5,-705.5 299.5,-675.5 46.5,-675.5"/>
<text text-anchor="start" x="53.5" y="-686.9" font-family="Arial" font-size="14.00" fill="#000000">budget </text>
<text text-anchor="start" x="100.1942" y="-686.9" font-family="Arial" font-size="14.00" fill="#666666">[bigint]</text>
<polygon fill="none" stroke="#000000" points="46.5,-645.5 46.5,-675.5 299.5,-675.5 299.5,-645.5 46.5,-645.5"/>
<text text-anchor="start" x="53.5" y="-656.9" font-family="Arial" font-size="14.00" fill="#000000">revenue </text>
<text text-anchor="start" x="107.9642" y="-656.9" font-family="Arial" font-size="14.00" fill="#666666">[bigint]</text>
<polygon fill="none" stroke="#000000" points="46.5,-615.5 46.5,-645.5 299.5,-645.5 299.5,-615.5 46.5,-615.5"/>
<text text-anchor="start" x="53.5" y="-626.9" font-family="Arial" font-size="14.00" fill="#000000">runtime </text>
<text text-anchor="start" x="104.0568" y="-626.9" font-family="Arial" font-size="14.00" fill="#666666">[integer]</text>
<polygon fill="none" stroke="#000000" points="46.5,-585.5 46.5,-615.5 299.5,-615.5 299.5,-585.5 46.5,-585.5"/>
<text text-anchor="start" x="53.5" y="-596.9" font-family="Arial" font-size="14.00" fill="#000000">origin_country </text>
<text text-anchor="start" x="145.2938" y="-596.9" font-family="Arial" font-size="14.00" fill="#666666">[character(2)[]]</text>
<polygon fill="none" stroke="#000000" points="46.5,-555.5 46.5,-585.5 299.5,-585.5 299.5,-555.5 46.5,-555.5"/>
<text text-anchor="start" x="53.1964" y="-566.9" font-family="Arial" font-size="14.00" fill="#000000">production_companies </text>
<text text-anchor="start" x="197.9032" y="-566.9" font-family="Arial" font-size="14.00" fill="#666666">[varchar(255)[]]</text>
<polygon fill="none" stroke="#000000" points="46.5,-525.5 46.5,-555.5 299.5,-555.5 299.5,-525.5 46.5,-525.5"/>
<text text-anchor="start" x="53.5" y="-536.9" font-family="Arial" font-size="14.00" fill="#000000">production_countries </text>
<text text-anchor="start" x="187.3148" y="-536.9" font-family="Arial" font-size="14.00" fill="#666666">[character(2)[]]</text>
<polygon fill="none" stroke="#000000" points="46.5,-495.5 46.5,-525.5 299.5,-525.5 299.5,-495.5 46.5,-495.5"/>
<text text-anchor="start" x="53.5" y="-506.9" font-family="Arial" font-size="14.00" fill="#000000">production_status </text>
<text text-anchor="start" x="167.873" y="-506.9" font-family="Arial" font-size="14.00" fill="#666666">[varchar(25)]</text>
<polygon fill="none" stroke="#000000" points="46.5,-465.5 46.5,-495.5 299.5,-495.5 299.5,-465.5 46.5,-465.5"/>
<text text-anchor="start" x="53.5" y="-476.9" font-family="Arial" font-size="14.00" fill="#000000">original_language </text>
<text text-anchor="start" x="167.8688" y="-476.9" font-family="Arial" font-size="14.00" fill="#666666">[character(2)]</text>
<polygon fill="none" stroke="#000000" points="46.5,-435.5 46.5,-465.5 299.5,-465.5 299.5,-435.5 46.5,-435.5"/>
<text text-anchor="start" x="53.5" y="-446.9" font-family="Arial" font-size="14.00" fill="#000000">spoken_languages </text>
<text text-anchor="start" x="174.8884" y="-446.9" font-family="Arial" font-size="14.00" fill="#666666">[character(2)[]]</text>
<polygon fill="none" stroke="#000000" points="46.5,-405.5 46.5,-435.5 299.5,-435.5 299.5,-405.5 46.5,-405.5"/>
<text text-anchor="start" x="53.5" y="-416.9" font-family="Arial" font-size="14.00" fill="#000000">genre </text>
<text text-anchor="start" x="93.1816" y="-416.9" font-family="Arial" font-size="14.00" fill="#666666">[varchar(20)[]]</text>
<polygon fill="none" stroke="#000000" points="46.5,-375.5 46.5,-405.5 299.5,-405.5 299.5,-375.5 46.5,-375.5"/>
<text text-anchor="start" x="53.5" y="-386.9" font-family="Arial" font-size="14.00" fill="#000000">original_media_title </text>
<text text-anchor="start" x="177.9586" y="-386.9" font-family="Arial" font-size="14.00" fill="#666666">[varchar(255)]</text>
<polygon fill="none" stroke="#000000" points="46.5,-345.5 46.5,-375.5 299.5,-375.5 299.5,-345.5 46.5,-345.5"/>
<text text-anchor="start" x="53.5" y="-356.9" font-family="Arial" font-size="14.00" fill="#000000">tagline </text>
<text text-anchor="start" x="98.6248" y="-356.9" font-family="Arial" font-size="14.00" fill="#666666">[varchar(255)]</text>
<polygon fill="none" stroke="#000000" points="46.5,-315.5 46.5,-345.5 299.5,-345.5 299.5,-315.5 46.5,-315.5"/>
<text text-anchor="start" x="53.5" y="-326.9" font-family="Arial" font-size="14.00" fill="#000000">overview </text>
<text text-anchor="start" x="112.6122" y="-326.9" font-family="Arial" font-size="14.00" fill="#666666">[text]</text>
<polygon fill="none" stroke="#000000" points="46.5,-285.5 46.5,-315.5 299.5,-315.5 299.5,-285.5 46.5,-285.5"/>
<text text-anchor="start" x="53.5" y="-296.9" font-family="Arial" font-size="14.00" fill="#000000">tmdb_rating </text>
<text text-anchor="start" x="131.2952" y="-296.9" font-family="Arial" font-size="14.00" fill="#666666">[numeric(5,3)]</text>
<polygon fill="none" stroke="#000000" points="46.5,-255.5 46.5,-285.5 299.5,-285.5 299.5,-255.5 46.5,-255.5"/>
<text text-anchor="start" x="53.5" y="-266.9" font-family="Arial" font-size="14.00" fill="#000000">tmdb_votes </text>
<text text-anchor="start" x="129.7454" y="-266.9" font-family="Arial" font-size="14.00" fill="#666666">[integer]</text>
<polygon fill="none" stroke="#000000" points="46.5,-225.5 46.5,-255.5 299.5,-255.5 299.5,-225.5 46.5,-225.5"/>
<text text-anchor="start" x="53.5" y="-236.9" font-family="Arial" font-size="14.00" fill="#000000">rt_score </text>
<text text-anchor="start" x="107.9502" y="-236.9" font-family="Arial" font-size="14.00" fill="#666666">[integer]</text>
<polygon fill="none" stroke="#000000" points="46.5,-195.5 46.5,-225.5 299.5,-225.5 299.5,-195.5 46.5,-195.5"/>
<text text-anchor="start" x="53.5" y="-206.9" font-family="Arial" font-size="14.00" fill="#000000">metascore </text>
<text text-anchor="start" x="122.7328" y="-206.9" font-family="Arial" font-size="14.00" fill="#666666">[integer]</text>
<polygon fill="none" stroke="#000000" points="46.5,-165.5 46.5,-195.5 299.5,-195.5 299.5,-165.5 46.5,-165.5"/>
<text text-anchor="start" x="53.5" y="-176.9" font-family="Arial" font-size="14.00" fill="#000000">imdb_rating </text>
<text text-anchor="start" x="130.5112" y="-176.9" font-family="Arial" font-size="14.00" fill="#666666">[numeric(4,1)]</text>
<polygon fill="none" stroke="#000000" points="46.5,-135.5 46.5,-165.5 299.5,-165.5 299.5,-135.5 46.5,-135.5"/>
<text text-anchor="start" x="53.5" y="-146.9" font-family="Arial" font-size="14.00" fill="#000000">imdb_votes </text>
<text text-anchor="start" x="128.9614" y="-146.9" font-family="Arial" font-size="14.00" fill="#666666">[integer]</text>
<polygon fill="none" stroke="#000000" points="46.5,-105.5 46.5,-135.5 299.5,-135.5 299.5,-105.5 46.5,-105.5"/>
<text text-anchor="start" x="53.5" y="-116.9" font-family="Arial" font-size="14.00" fill="#000000">created_at </text>
<text text-anchor="start" x="123.528" y="-116.9" font-family="Arial" font-size="14.00" fill="#666666">[timestamp with time zone]</text>
<polygon fill="none" stroke="#000000" points="46.5,-75.5 46.5,-105.5 299.5,-105.5 299.5,-75.5 46.5,-75.5"/>
<text text-anchor="start" x="53.1915" y="-86.9" font-family="Arial" font-size="14.00" fill="#000000">updated_at </text>
<text text-anchor="start" x="127.1241" y="-86.9" font-family="Arial" font-size="14.00" fill="#666666">[timestamp with time zone]</text>
<polygon fill="none" stroke="#000000" points="46.5,-45.5 46.5,-75.5 299.5,-75.5 299.5,-45.5 46.5,-45.5"/>
<text text-anchor="start" x="53.5" y="-56.9" font-family="Arial" font-size="14.00" fill="#000000">reviewed </text>
<text text-anchor="start" x="113.3948" y="-56.9" font-family="Arial" font-size="14.00" fill="#666666">[boolean]</text>
<polygon fill="none" stroke="#000000" stroke-width="3" points="44.5,-44.5 44.5,-1042.5 300.5,-1042.5 300.5,-44.5 44.5,-44.5"/>
</g>
</g>
</svg>
