<?xml version="1.0" encoding="UTF-8" standalone="no"?>
<!DOCTYPE svg PUBLIC "-//W3C//DTD SVG 1.1//EN"
 "http://www.w3.org/Graphics/SVG/1.1/DTD/svg11.dtd">
<!-- Generated by graphviz version 2.40.1 (20161225.0304)
 -->
<!-- Title: atp.prediction Pages: 1 -->
<svg width="349pt" height="285pt"
 viewBox="0.00 0.00 349.00 285.00" xmlns="http://www.w3.org/2000/svg" xmlns:xlink="http://www.w3.org/1999/xlink">
<g id="graph0" class="graph" transform="scale(1 1) rotate(0) translate(4 281)">
<title>atp.prediction</title>
<polygon fill="#ffffff" stroke="transparent" points="-4,4 -4,-281 345,-281 345,4 -4,4"/>
<!-- atp.prediction -->
<g id="node1" class="node">
<title>atp.prediction</title>
<polygon fill="#efefef" stroke="transparent" points="46.5,-195.5 46.5,-230.5 295.5,-230.5 295.5,-195.5 46.5,-195.5"/>
<polygon fill="none" stroke="#000000" points="46.5,-195.5 46.5,-230.5 295.5,-230.5 295.5,-195.5 46.5,-195.5"/>
<text text-anchor="start" x="53.2007" y="-208.3" font-family="Arial Bold" font-size="18.00" fill="#000000">atp.prediction</text>
<text text-anchor="start" x="161.2313" y="-208.3" font-family="Arial" font-size="14.00" fill="#000000">    </text>
<text text-anchor="start" x="195.4361" y="-208.3" font-family="Arial" font-size="14.00" fill="#666666">[BASE TABLE]</text>
<polygon fill="none" stroke="#000000" points="46.5,-165.5 46.5,-195.5 295.5,-195.5 295.5,-165.5 46.5,-165.5"/>
<text text-anchor="start" x="53.5" y="-176.9" font-family="Arial" font-size="14.00" fill="#000000">imdb_id </text>
<text text-anchor="start" x="106.3948" y="-176.9" font-family="Arial" font-size="14.00" fill="#666666">[varchar(10)]</text>
<polygon fill="none" stroke="#000000" points="46.5,-135.5 46.5,-165.5 295.5,-165.5 295.5,-135.5 46.5,-135.5"/>
<text text-anchor="start" x="53.5" y="-146.9" font-family="Arial" font-size="14.00" fill="#000000">prediction </text>
<text text-anchor="start" x="118.068" y="-146.9" font-family="Arial" font-size="14.00" fill="#666666">[smallint]</text>
<polygon fill="none" stroke="#000000" points="46.5,-105.5 46.5,-135.5 295.5,-135.5 295.5,-105.5 46.5,-105.5"/>
<text text-anchor="start" x="53.5" y="-116.9" font-family="Arial" font-size="14.00" fill="#000000">probability </text>
<text text-anchor="start" x="121.1746" y="-116.9" font-family="Arial" font-size="14.00" fill="#666666">[numeric]</text>
<polygon fill="none" stroke="#000000" points="46.5,-75.5 46.5,-105.5 295.5,-105.5 295.5,-75.5 46.5,-75.5"/>
<text text-anchor="start" x="53.5" y="-86.9" font-family="Arial" font-size="14.00" fill="#000000">cm_value </text>
<text text-anchor="start" x="117.2882" y="-86.9" font-family="Arial" font-size="14.00" fill="#666666">[character(2)]</text>
<polygon fill="none" stroke="#000000" points="46.5,-45.5 46.5,-75.5 295.5,-75.5 295.5,-45.5 46.5,-45.5"/>
<text text-anchor="start" x="53.1438" y="-56.9" font-family="Arial" font-size="14.00" fill="#000000">created_at </text>
<text text-anchor="start" x="123.1718" y="-56.9" font-family="Arial" font-size="14.00" fill="#666666">[timestamp with time zone]</text>
<polygon fill="none" stroke="#000000" stroke-width="3" points="44.5,-44.5 44.5,-232.5 296.5,-232.5 296.5,-44.5 44.5,-44.5"/>
</g>
</g>
</svg>
