<?xml version="1.0" encoding="UTF-8" standalone="no"?>
<!DOCTYPE svg PUBLIC "-//W3C//DTD SVG 1.1//EN"
 "http://www.w3.org/Graphics/SVG/1.1/DTD/svg11.dtd">
<!-- Generated by graphviz version 2.40.1 (20161225.0304)
 -->
<!-- Title: atp.engineered_normalization_table Pages: 1 -->
<svg width="527pt" height="225pt"
 viewBox="0.00 0.00 527.00 225.00" xmlns="http://www.w3.org/2000/svg" xmlns:xlink="http://www.w3.org/1999/xlink">
<g id="graph0" class="graph" transform="scale(1 1) rotate(0) translate(4 221)">
<title>atp.engineered_normalization_table</title>
<polygon fill="#ffffff" stroke="transparent" points="-4,4 -4,-221 523,-221 523,4 -4,4"/>
<!-- atp.engineered_normalization_table -->
<g id="node1" class="node">
<title>atp.engineered_normalization_table</title>
<polygon fill="#efefef" stroke="transparent" points="46.5,-135.5 46.5,-170.5 473.5,-170.5 473.5,-135.5 46.5,-135.5"/>
<polygon fill="none" stroke="#000000" points="46.5,-135.5 46.5,-170.5 473.5,-170.5 473.5,-135.5 46.5,-135.5"/>
<text text-anchor="start" x="53.1727" y="-148.3" font-family="Arial Bold" font-size="18.00" fill="#000000">atp.engineered_normalization_table</text>
<text text-anchor="start" x="339.2593" y="-148.3" font-family="Arial" font-size="14.00" fill="#000000">    </text>
<text text-anchor="start" x="373.4641" y="-148.3" font-family="Arial" font-size="14.00" fill="#666666">[BASE TABLE]</text>
<polygon fill="none" stroke="#000000" points="46.5,-105.5 46.5,-135.5 473.5,-135.5 473.5,-105.5 46.5,-105.5"/>
<text text-anchor="start" x="53.5" y="-116.9" font-family="Arial" font-size="14.00" fill="#000000">feature </text>
<text text-anchor="start" x="100.9628" y="-116.9" font-family="Arial" font-size="14.00" fill="#666666">[varchar(255)]</text>
<polygon fill="none" stroke="#000000" points="46.5,-75.5 46.5,-105.5 473.5,-105.5 473.5,-75.5 46.5,-75.5"/>
<text text-anchor="start" x="53.5" y="-86.9" font-family="Arial" font-size="14.00" fill="#000000">min </text>
<text text-anchor="start" x="79.9404" y="-86.9" font-family="Arial" font-size="14.00" fill="#666666">[double precision]</text>
<polygon fill="none" stroke="#000000" points="46.5,-45.5 46.5,-75.5 473.5,-75.5 473.5,-45.5 46.5,-45.5"/>
<text text-anchor="start" x="53.5" y="-56.9" font-family="Arial" font-size="14.00" fill="#000000">max </text>
<text text-anchor="start" x="83.8338" y="-56.9" font-family="Arial" font-size="14.00" fill="#666666">[double precision]</text>
<polygon fill="none" stroke="#000000" stroke-width="3" points="44.5,-44.5 44.5,-172.5 474.5,-172.5 474.5,-44.5 44.5,-44.5"/>
</g>
</g>
</svg>
