<?xml version="1.0" encoding="UTF-8" standalone="no"?>
<!DOCTYPE svg PUBLIC "-//W3C//DTD SVG 1.1//EN"
 "http://www.w3.org/Graphics/SVG/1.1/DTD/svg11.dtd">
<!-- Generated by graphviz version 2.40.1 (20161225.0304)
 -->
<!-- Title: atp.movies Pages: 1 -->
<svg width="418pt" height="1215pt"
 viewBox="0.00 0.00 418.00 1215.00" xmlns="http://www.w3.org/2000/svg" xmlns:xlink="http://www.w3.org/1999/xlink">
<g id="graph0" class="graph" transform="scale(1 1) rotate(0) translate(4 1211)">
<title>atp.movies</title>
<polygon fill="#ffffff" stroke="transparent" points="-4,4 -4,-1211 414,-1211 414,4 -4,4"/>
<!-- atp.movies -->
<g id="node1" class="node">
<title>atp.movies</title>
<polygon fill="#efefef" stroke="transparent" points="46,-1125.5 46,-1160.5 364,-1160.5 364,-1125.5 46,-1125.5"/>
<polygon fill="none" stroke="#000000" points="46,-1125.5 46,-1160.5 364,-1160.5 364,-1125.5 46,-1125.5"/>
<text text-anchor="start" x="122.61" y="-1138.3" font-family="Arial Bold" font-size="18.00" fill="#000000">atp.movies</text>
<text text-anchor="start" x="209.6256" y="-1138.3" font-family="Arial" font-size="14.00" fill="#000000">    </text>
<text text-anchor="start" x="243.8304" y="-1138.3" font-family="Arial" font-size="14.00" fill="#666666">[VIEW]</text>
<polygon fill="none" stroke="#000000" points="46,-1095.5 46,-1125.5 364,-1125.5 364,-1095.5 46,-1095.5"/>
<text text-anchor="start" x="53" y="-1106.9" font-family="Arial" font-size="14.00" fill="#000000">imdb_id </text>
<text text-anchor="start" x="105.8948" y="-1106.9" font-family="Arial" font-size="14.00" fill="#666666">[varchar(10)]</text>
<polygon fill="none" stroke="#000000" points="46,-1065.5 46,-1095.5 364,-1095.5 364,-1065.5 46,-1065.5"/>
<text text-anchor="start" x="53" y="-1076.9" font-family="Arial" font-size="14.00" fill="#000000">tmdb_id </text>
<text text-anchor="start" x="106.6788" y="-1076.9" font-family="Arial" font-size="14.00" fill="#666666">[integer]</text>
<polygon fill="none" stroke="#000000" points="46,-1035.5 46,-1065.5 364,-1065.5 364,-1035.5 46,-1035.5"/>
<text text-anchor="start" x="53" y="-1046.9" font-family="Arial" font-size="14.00" fill="#000000">label </text>
<text text-anchor="start" x="86.4516" y="-1046.9" font-family="Arial" font-size="14.00" fill="#666666">[atp.label_type]</text>
<polygon fill="none" stroke="#000000" points="46,-1005.5 46,-1035.5 364,-1035.5 364,-1005.5 46,-1005.5"/>
<text text-anchor="start" x="53" y="-1016.9" font-family="Arial" font-size="14.00" fill="#000000">human_labeled </text>
<text text-anchor="start" x="152.5904" y="-1016.9" font-family="Arial" font-size="14.00" fill="#666666">[boolean]</text>
<polygon fill="none" stroke="#000000" points="46,-975.5 46,-1005.5 364,-1005.5 364,-975.5 46,-975.5"/>
<text text-anchor="start" x="53" y="-986.9" font-family="Arial" font-size="14.00" fill="#000000">anomalous </text>
<text text-anchor="start" x="125.3534" y="-986.9" font-family="Arial" font-size="14.00" fill="#666666">[boolean]</text>
<polygon fill="none" stroke="#000000" points="46,-945.5 46,-975.5 364,-975.5 364,-945.5 46,-945.5"/>
<text text-anchor="start" x="53" y="-956.9" font-family="Arial" font-size="14.00" fill="#000000">media_type </text>
<text text-anchor="start" x="129.244" y="-956.9" font-family="Arial" font-size="14.00" fill="#666666">[atp.media_type]</text>
<polygon fill="none" stroke="#000000" points="46,-915.5 46,-945.5 364,-945.5 364,-915.5 46,-915.5"/>
<text text-anchor="start" x="53" y="-926.9" font-family="Arial" font-size="14.00" fill="#000000">media_title </text>
<text text-anchor="start" x="124.5652" y="-926.9" font-family="Arial" font-size="14.00" fill="#666666">[varchar(255)]</text>
<polygon fill="none" stroke="#000000" points="46,-885.5 46,-915.5 364,-915.5 364,-885.5 46,-885.5"/>
<text text-anchor="start" x="53" y="-896.9" font-family="Arial" font-size="14.00" fill="#000000">season </text>
<text text-anchor="start" x="102.021" y="-896.9" font-family="Arial" font-size="14.00" fill="#666666">[smallint]</text>
<polygon fill="none" stroke="#000000" points="46,-855.5 46,-885.5 364,-885.5 364,-855.5 46,-855.5"/>
<text text-anchor="start" x="53" y="-866.9" font-family="Arial" font-size="14.00" fill="#000000">episode </text>
<text text-anchor="start" x="105.9102" y="-866.9" font-family="Arial" font-size="14.00" fill="#666666">[smallint]</text>
<polygon fill="none" stroke="#000000" points="46,-825.5 46,-855.5 364,-855.5 364,-825.5 46,-825.5"/>
<text text-anchor="start" x="53" y="-836.9" font-family="Arial" font-size="14.00" fill="#000000">release_year </text>
<text text-anchor="start" x="137.7966" y="-836.9" font-family="Arial" font-size="14.00" fill="#666666">[smallint]</text>
<polygon fill="none" stroke="#000000" points="46,-795.5 46,-825.5 364,-825.5 364,-795.5 46,-795.5"/>
<text text-anchor="start" x="53" y="-806.9" font-family="Arial" font-size="14.00" fill="#000000">budget </text>
<text text-anchor="start" x="99.6942" y="-806.9" font-family="Arial" font-size="14.00" fill="#666666">[bigint]</text>
<polygon fill="none" stroke="#000000" points="46,-765.5 46,-795.5 364,-795.5 364,-765.5 46,-765.5"/>
<text text-anchor="start" x="53" y="-776.9" font-family="Arial" font-size="14.00" fill="#000000">revenue </text>
<text text-anchor="start" x="107.4642" y="-776.9" font-family="Arial" font-size="14.00" fill="#666666">[bigint]</text>
<polygon fill="none" stroke="#000000" points="46,-735.5 46,-765.5 364,-765.5 364,-735.5 46,-735.5"/>
<text text-anchor="start" x="53" y="-746.9" font-family="Arial" font-size="14.00" fill="#000000">runtime </text>
<text text-anchor="start" x="103.5568" y="-746.9" font-family="Arial" font-size="14.00" fill="#666666">[integer]</text>
<polygon fill="none" stroke="#000000" points="46,-705.5 46,-735.5 364,-735.5 364,-705.5 46,-705.5"/>
<text text-anchor="start" x="53" y="-716.9" font-family="Arial" font-size="14.00" fill="#000000">origin_country </text>
<text text-anchor="start" x="144.7938" y="-716.9" font-family="Arial" font-size="14.00" fill="#666666">[character(2)[]]</text>
<polygon fill="none" stroke="#000000" points="46,-675.5 46,-705.5 364,-705.5 364,-675.5 46,-675.5"/>
<text text-anchor="start" x="53" y="-686.9" font-family="Arial" font-size="14.00" fill="#000000">production_companies </text>
<text text-anchor="start" x="197.7068" y="-686.9" font-family="Arial" font-size="14.00" fill="#666666">[varchar(255)[]]</text>
<polygon fill="none" stroke="#000000" points="46,-645.5 46,-675.5 364,-675.5 364,-645.5 46,-645.5"/>
<text text-anchor="start" x="53" y="-656.9" font-family="Arial" font-size="14.00" fill="#000000">production_countries </text>
<text text-anchor="start" x="186.8148" y="-656.9" font-family="Arial" font-size="14.00" fill="#666666">[character(2)[]]</text>
<polygon fill="none" stroke="#000000" points="46,-615.5 46,-645.5 364,-645.5 364,-615.5 46,-615.5"/>
<text text-anchor="start" x="53" y="-626.9" font-family="Arial" font-size="14.00" fill="#000000">production_status </text>
<text text-anchor="start" x="167.373" y="-626.9" font-family="Arial" font-size="14.00" fill="#666666">[varchar(25)]</text>
<polygon fill="none" stroke="#000000" points="46,-585.5 46,-615.5 364,-615.5 364,-585.5 46,-585.5"/>
<text text-anchor="start" x="53" y="-596.9" font-family="Arial" font-size="14.00" fill="#000000">original_language </text>
<text text-anchor="start" x="167.3688" y="-596.9" font-family="Arial" font-size="14.00" fill="#666666">[character(2)]</text>
<polygon fill="none" stroke="#000000" points="46,-555.5 46,-585.5 364,-585.5 364,-555.5 46,-555.5"/>
<text text-anchor="start" x="53" y="-566.9" font-family="Arial" font-size="14.00" fill="#000000">spoken_languages </text>
<text text-anchor="start" x="174.3884" y="-566.9" font-family="Arial" font-size="14.00" fill="#666666">[character(2)[]]</text>
<polygon fill="none" stroke="#000000" points="46,-525.5 46,-555.5 364,-555.5 364,-525.5 46,-525.5"/>
<text text-anchor="start" x="53" y="-536.9" font-family="Arial" font-size="14.00" fill="#000000">genre </text>
<text text-anchor="start" x="92.6816" y="-536.9" font-family="Arial" font-size="14.00" fill="#666666">[varchar(20)[]]</text>
<polygon fill="none" stroke="#000000" points="46,-495.5 46,-525.5 364,-525.5 364,-495.5 46,-495.5"/>
<text text-anchor="start" x="53" y="-506.9" font-family="Arial" font-size="14.00" fill="#000000">original_media_title </text>
<text text-anchor="start" x="177.4586" y="-506.9" font-family="Arial" font-size="14.00" fill="#666666">[varchar(255)]</text>
<polygon fill="none" stroke="#000000" points="46,-465.5 46,-495.5 364,-495.5 364,-465.5 46,-465.5"/>
<text text-anchor="start" x="53" y="-476.9" font-family="Arial" font-size="14.00" fill="#000000">tagline </text>
<text text-anchor="start" x="98.1248" y="-476.9" font-family="Arial" font-size="14.00" fill="#666666">[varchar(255)]</text>
<polygon fill="none" stroke="#000000" points="46,-435.5 46,-465.5 364,-465.5 364,-435.5 46,-435.5"/>
<text text-anchor="start" x="53" y="-446.9" font-family="Arial" font-size="14.00" fill="#000000">overview </text>
<text text-anchor="start" x="112.1122" y="-446.9" font-family="Arial" font-size="14.00" fill="#666666">[text]</text>
<polygon fill="none" stroke="#000000" points="46,-405.5 46,-435.5 364,-435.5 364,-405.5 46,-405.5"/>
<text text-anchor="start" x="53" y="-416.9" font-family="Arial" font-size="14.00" fill="#000000">tmdb_rating </text>
<text text-anchor="start" x="130.7952" y="-416.9" font-family="Arial" font-size="14.00" fill="#666666">[numeric(5,3)]</text>
<polygon fill="none" stroke="#000000" points="46,-375.5 46,-405.5 364,-405.5 364,-375.5 46,-375.5"/>
<text text-anchor="start" x="53" y="-386.9" font-family="Arial" font-size="14.00" fill="#000000">tmdb_votes </text>
<text text-anchor="start" x="129.2454" y="-386.9" font-family="Arial" font-size="14.00" fill="#666666">[integer]</text>
<polygon fill="none" stroke="#000000" points="46,-345.5 46,-375.5 364,-375.5 364,-345.5 46,-345.5"/>
<text text-anchor="start" x="53" y="-356.9" font-family="Arial" font-size="14.00" fill="#000000">rt_score </text>
<text text-anchor="start" x="107.4502" y="-356.9" font-family="Arial" font-size="14.00" fill="#666666">[integer]</text>
<polygon fill="none" stroke="#000000" points="46,-315.5 46,-345.5 364,-345.5 364,-315.5 46,-315.5"/>
<text text-anchor="start" x="53" y="-326.9" font-family="Arial" font-size="14.00" fill="#000000">metascore </text>
<text text-anchor="start" x="122.2328" y="-326.9" font-family="Arial" font-size="14.00" fill="#666666">[integer]</text>
<polygon fill="none" stroke="#000000" points="46,-285.5 46,-315.5 364,-315.5 364,-285.5 46,-285.5"/>
<text text-anchor="start" x="53" y="-296.9" font-family="Arial" font-size="14.00" fill="#000000">imdb_rating </text>
<text text-anchor="start" x="130.0112" y="-296.9" font-family="Arial" font-size="14.00" fill="#666666">[numeric(4,1)]</text>
<polygon fill="none" stroke="#000000" points="46,-255.5 46,-285.5 364,-285.5 364,-255.5 46,-255.5"/>
<text text-anchor="start" x="53" y="-266.9" font-family="Arial" font-size="14.00" fill="#000000">imdb_votes </text>
<text text-anchor="start" x="128.4614" y="-266.9" font-family="Arial" font-size="14.00" fill="#666666">[integer]</text>
<polygon fill="none" stroke="#000000" points="46,-225.5 46,-255.5 364,-255.5 364,-225.5 46,-225.5"/>
<text text-anchor="start" x="53" y="-236.9" font-family="Arial" font-size="14.00" fill="#000000">reviewed </text>
<text text-anchor="start" x="112.8948" y="-236.9" font-family="Arial" font-size="14.00" fill="#666666">[boolean]</text>
<polygon fill="none" stroke="#000000" points="46,-195.5 46,-225.5 364,-225.5 364,-195.5 46,-195.5"/>
<text text-anchor="start" x="53" y="-206.9" font-family="Arial" font-size="14.00" fill="#000000">prediction </text>
<text text-anchor="start" x="117.568" y="-206.9" font-family="Arial" font-size="14.00" fill="#666666">[smallint]</text>
<polygon fill="none" stroke="#000000" points="46,-165.5 46,-195.5 364,-195.5 364,-165.5 46,-165.5"/>
<text text-anchor="start" x="53" y="-176.9" font-family="Arial" font-size="14.00" fill="#000000">probability </text>
<text text-anchor="start" x="120.6746" y="-176.9" font-family="Arial" font-size="14.00" fill="#666666">[numeric]</text>
<polygon fill="none" stroke="#000000" points="46,-135.5 46,-165.5 364,-165.5 364,-135.5 46,-135.5"/>
<text text-anchor="start" x="53" y="-146.9" font-family="Arial" font-size="14.00" fill="#000000">cm_value </text>
<text text-anchor="start" x="116.7882" y="-146.9" font-family="Arial" font-size="14.00" fill="#666666">[character(2)]</text>
<polygon fill="none" stroke="#000000" points="46,-105.5 46,-135.5 364,-135.5 364,-105.5 46,-105.5"/>
<text text-anchor="start" x="53" y="-116.9" font-family="Arial" font-size="14.00" fill="#000000">training_created_at </text>
<text text-anchor="start" x="176.7054" y="-116.9" font-family="Arial" font-size="14.00" fill="#666666">[timestamp with time zone]</text>
<polygon fill="none" stroke="#000000" points="46,-75.5 46,-105.5 364,-105.5 364,-75.5 46,-75.5"/>
<text text-anchor="start" x="53" y="-86.9" font-family="Arial" font-size="14.00" fill="#000000">training_updated_at </text>
<text text-anchor="start" x="180.61" y="-86.9" font-family="Arial" font-size="14.00" fill="#666666">[timestamp with time zone]</text>
<polygon fill="none" stroke="#000000" points="46,-45.5 46,-75.5 364,-75.5 364,-45.5 46,-45.5"/>
<text text-anchor="start" x="52.9138" y="-56.9" font-family="Arial" font-size="14.00" fill="#000000">prediction_created_at </text>
<text text-anchor="start" x="191.4018" y="-56.9" font-family="Arial" font-size="14.00" fill="#666666">[timestamp with time zone]</text>
<polygon fill="none" stroke="#000000" stroke-width="3" points="44.5,-44.5 44.5,-1162.5 365.5,-1162.5 365.5,-44.5 44.5,-44.5"/>
</g>
</g>
</svg>
